<svg xmlns="http://www.w3.org/2000/svg" width="1160" height="590" viewBox="0 0 1160 590" font-family="Arial, sans-serif">
<defs><marker id="o" viewBox="0 0 10 10" refX="10" refY="5" markerWidth="10" markerHeight="10" orient="auto"><path d="M0,0 L10,5 L0,10" fill="none" stroke="#000" stroke-width="1.2"/></marker><marker id="g" viewBox="0 0 12 12" refX="12" refY="6" markerWidth="14" markerHeight="14" orient="auto"><path d="M0,0 L12,6 L0,12 Z" fill="#fff" stroke="#000"/></marker></defs>
<rect width="1160" height="590" fill="#fff"/>
<text x="580.0" y="28" font-size="17" font-weight="bold" text-anchor="middle">CU03 · Actualizar stock</text>
<rect x="260" y="50" width="870" height="510" fill="none" stroke="#000"/>
<text x="268" y="68" font-size="13" font-weight="bold">Sistema E-Commerce Zero</text>
<line x1="138" y1="162" x2="334" y2="141" stroke="#000"/>
<line x1="138" y1="177" x2="364" y2="271" stroke="#000"/>
<line x1="138" y1="191" x2="396" y2="433" stroke="#000"/>
<line x1="110" y1="392" x2="110" y2="218" stroke="#000" marker-end="url(#g)"/>
<line x1="494" y1="163" x2="682" y2="268" stroke="#000" stroke-dasharray="6,4" marker-end="url(#o)"/>
<text x="588.0" y="210.5" font-size="11" text-anchor="middle" style="paint-order:stroke" stroke="#fff" stroke-width="4">«include»</text>
<line x1="540" y1="300" x2="640" y2="300" stroke="#000" stroke-dasharray="6,4" marker-end="url(#o)"/>
<text x="590.0" y="295.0" font-size="11" text-anchor="middle" style="paint-order:stroke" stroke="#fff" stroke-width="4">«include»</text>
<line x1="494" y1="437" x2="682" y2="332" stroke="#000" stroke-dasharray="6,4" marker-end="url(#o)"/>
<text x="588.0" y="379.5" font-size="11" text-anchor="middle" style="paint-order:stroke" stroke="#fff" stroke-width="4">«include»</text>
<line x1="801" y1="268" x2="938" y2="197" stroke="#000" stroke-dasharray="6,4" marker-end="url(#o)"/>
<text x="869.5" y="227.5" font-size="11" text-anchor="middle" style="paint-order:stroke" stroke="#fff" stroke-width="4">«include»</text>
<line x1="802" y1="331" x2="936" y2="398" stroke="#000" stroke-dasharray="6,4" marker-end="url(#o)"/>
<text x="869.0" y="359.5" font-size="11" text-anchor="middle" style="paint-order:stroke" stroke="#fff" stroke-width="4">«include»</text>
<circle cx="110" cy="132" r="11" fill="#fff" stroke="#000"/><line x1="110" y1="143" x2="110" y2="178" stroke="#000"/><line x1="92" y1="155" x2="128" y2="155" stroke="#000"/><line x1="110" y1="178" x2="95" y2="205" stroke="#000"/><line x1="110" y1="178" x2="125" y2="205" stroke="#000"/>
<text x="110" y="223" font-size="12.5" text-anchor="middle">Administrativo</text>
<circle cx="110" cy="412" r="11" fill="#fff" stroke="#000"/><line x1="110" y1="423" x2="110" y2="458" stroke="#000"/><line x1="92" y1="435" x2="128" y2="435" stroke="#000"/><line x1="110" y1="458" x2="95" y2="485" stroke="#000"/><line x1="110" y1="458" x2="125" y2="485" stroke="#000"/>
<text x="110" y="503" font-size="12.5" text-anchor="middle">Jefe</text>
<ellipse cx="435.0" cy="130.0" rx="105.0" ry="40.0" fill="#fff" stroke="#000"/>
<text x="435.0" y="126.5" font-size="12.5" text-anchor="middle">Recibir compra</text>
<text x="435.0" y="141.5" font-size="12.5" text-anchor="middle">a proveedor</text>
<ellipse cx="435.0" cy="300.0" rx="105.0" ry="40.0" fill="#fff" stroke="#000"/>
<text x="435.0" y="296.5" font-size="12.5" text-anchor="middle">Confirmar pago</text>
<text x="435.0" y="311.5" font-size="12.5" text-anchor="middle">de pedido</text>
<ellipse cx="435.0" cy="470.0" rx="105.0" ry="40.0" fill="#fff" stroke="#000"/>
<text x="435.0" y="466.5" font-size="12.5" text-anchor="middle">Anular pedido</text>
<text x="435.0" y="481.5" font-size="12.5" text-anchor="middle">pagado</text>
<ellipse cx="740.0" cy="300.0" rx="100.0" ry="40.0" fill="#fff" stroke="#000"/>
<text x="740.0" y="304.0" font-size="12.5" text-anchor="middle">Actualizar stock</text>
<ellipse cx="995.0" cy="167.5" rx="95.0" ry="37.5" fill="#fff" stroke="#000"/>
<text x="995.0" y="164.0" font-size="12.5" text-anchor="middle">Calcular stock</text>
<text x="995.0" y="179.0" font-size="12.5" text-anchor="middle">actual</text>
<ellipse cx="995.0" cy="427.5" rx="95.0" ry="37.5" fill="#fff" stroke="#000"/>
<text x="995.0" y="424.0" font-size="12.5" text-anchor="middle">Validar saldo</text>
<text x="995.0" y="439.0" font-size="12.5" text-anchor="middle">no negativo</text>
</svg>